<?xml version="1.0" encoding="iso-8859-1"?>
<!-- Generator: Adobe Illustrator 26.0.0, SVG Export Plug-In . SVG Version: 6.00 Build 0)  -->
<svg version="1.1" id="Layer_1" xmlns="http://www.w3.org/2000/svg" xmlns:xlink="http://www.w3.org/1999/xlink" x="0px" y="0px"
	 width="463.475px" height="641.857px" viewBox="0 0 463.475 641.857" enable-background="new 0 0 463.475 641.857"
	 xml:space="preserve">
<path d="M463.018,313.035l-4.563,2.811c-5.786,3.565-13.12,3.451-18.78-0.31c-19.542-12.987-66.557-46.378-113.599-95.855
	c-5.036,0.807-31.597,4.535-53.529-2.627c0,0,6.643-10.43,30.483-13.162c23.84-2.732,87.351,14.9,111.191,33.897
	c0,0,18.066-15.272,29.676-25.951c-6.767-11.858-8.437-46.3-18.852-82.66C414.287,91.627,392.381,40.415,365.07,0.166
	c-0.261-0.384-0.852-0.035-0.644,0.38c10.818,21.559,50.099,107.036,49.67,210.797c-11.335-3.524-69.446-16.047-100.761-27.007
	c-3.446-1.206-7.208-1.105-10.592,0.266c-17.185,6.962-20.115,11.31-28.707,11.593c0,0-4.718-0.993,13.41-21.853l65.311,1.242
	c0,0,12.665,5.96,13.658,8.195l19.37-19.37c0,0-25.43-116.756-56.012-162.409c-0.243-0.363-0.806-0.082-0.662,0.331
	c5.343,15.329,31.596,94.191,29.42,157.795c-27.006,5.215-61.649-1.676-70.589-2.421c-8.94-0.745-11.734,10.057-29.8,27.565
	c0,0,5.215-16.576-16.204-23.095c0,0,13.037,15.645,6.519,26.075c0,0-5.215-4.284-6.519-9.871c0,0-6.96,8.009-10.202,8.009
	s-10.202-8.009-10.202-8.009c-1.304,5.587-6.519,9.871-6.519,9.871c-6.519-10.43,6.519-26.075,6.519-26.075
	c-21.419,6.519-16.204,23.095-16.204,23.095c-18.066-17.507-20.86-28.31-29.8-27.565c-8.94,0.745-43.582,7.636-70.589,2.421
	C102.767,96.52,129.02,17.657,134.363,2.329c0.144-0.413-0.419-0.694-0.662-0.331c-30.582,45.653-56.012,162.409-56.012,162.409
	l19.37,19.37c0.993-2.235,13.658-8.195,13.658-8.195l65.312-1.242c18.128,20.86,13.41,21.853,13.41,21.853
	c-8.592-0.283-11.523-4.631-28.707-11.593c-3.384-1.371-7.146-1.473-10.592-0.266c-31.315,10.96-89.426,23.484-100.761,27.007
	C48.95,107.581,88.231,22.105,99.049,0.545c0.208-0.415-0.383-0.764-0.644-0.38C71.094,40.415,49.188,91.627,38.431,129.179
	c-10.415,36.36-12.085,70.802-18.852,82.66c11.61,10.678,29.676,25.951,29.676,25.951c23.84-18.997,87.351-36.629,111.191-33.897
	c23.84,2.732,30.483,13.162,30.483,13.162c-21.932,7.162-48.493,3.433-53.529,2.627C90.357,269.157,43.342,302.548,23.8,315.535
	c-5.66,3.762-12.994,3.875-18.78,0.31l-4.563-2.811C-5.86,445.698,55.191,551.059,68.379,572.161
	c0.244,0.39,0.829,0.069,0.647-0.354C21.609,461.6,26.15,372.006,27.15,345.928c0.095-2.482,1.127-4.84,2.896-6.584
	c36.358-35.846,72.983-64.408,105.755-92.63c7.922-6.822,17.851-10.876,28.28-11.622c12.6-0.901,22.998-1.4,22.998-1.4
	l-45.817,38.367l-8.94-1.863c0,0-11.92,73.755,11.175,213.815c20.416,123.812,51.893,152.729,58.921,157.772
	c0.332,0.238,0.739-0.152,0.52-0.497c-63.703-100.679-41.561-340.545-41.561-340.545l-6.705-8.94
	c33.152-46.19,46.562-45.445,46.562-45.445c-0.407,6.508-4.477,13.459-8.09,18.431c-3.596,4.948-5.133,11.098-4.249,17.151
	c16.618,113.82,40.525,137.258,40.525,137.258v-13.162c0,0,1.211,1.218,2.318,1.218c1.159,0,2.318-1.218,2.318-1.218v13.162
	c0,0,23.907-23.438,40.525-137.258c0.884-6.053-0.653-12.203-4.249-17.151c-3.613-4.971-7.683-11.923-8.09-18.431
	c0,0,13.41-0.745,46.562,45.445l-6.705,8.94c0,0,22.141,239.865-41.561,340.545c-0.219,0.345,0.188,0.735,0.52,0.497
	c7.028-5.043,38.505-33.96,58.921-157.772c23.095-140.06,11.175-213.815,11.175-213.815l-8.94,1.863l-45.817-38.367
	c0,0,10.397,0.498,22.998,1.4c10.428,0.746,20.357,4.8,28.28,11.622c32.773,28.222,69.397,56.784,105.755,92.63
	c1.769,1.744,2.801,4.102,2.896,6.584c1.001,26.078,5.541,115.672-41.876,225.879c-0.182,0.422,0.404,0.744,0.647,0.354
	C408.284,551.059,469.336,445.698,463.018,313.035z"/>
<g>
</g>
<g>
</g>
<g>
</g>
<g>
</g>
<g>
</g>
</svg>
